<svg xmlns="http://www.w3.org/2000/svg" width="30.08" height="30.08" viewBox="0 0 30.08 30.08"><path d="M30.079,12.728V24.282a1.175,1.175,0,0,1-2.35,0v-11L15.04,2.7,2.35,13.278v14.45H15.017a1.175,1.175,0,1,1,0,2.35H1.175A1.175,1.175,0,0,1,0,28.9V12.728a1.175,1.175,0,0,1,.423-.9L14.287.271a1.175,1.175,0,0,1,1.5,0L29.657,11.826A1.175,1.175,0,0,1,30.079,12.728ZM25.108,28.073a1.175,1.175,0,1,1-1.662,1.662L18.317,24.6a6.953,6.953,0,1,1,1.86-1.464ZM15.017,23.09a4.6,4.6,0,1,0-4.6-4.6,4.607,4.607,0,0,0,4.6,4.6Zm0,0" transform="translate(0 0.001)" fill="#4A4949"/></svg>