<svg width="24" height="24" viewBox="0 0 24 24" fill="none" xmlns="http://www.w3.org/2000/svg">
<path d="M4.43919 3.00072H18.5608C18.8832 2.9928 19.2038 3.05046 19.5033 3.1702C19.8027 3.28994 20.0747 3.46926 20.3027 3.69729C20.5307 3.92532 20.7101 4.19731 20.8298 4.49674C20.9495 4.79617 21.0072 5.1168 20.9993 5.43919V19.5608C21.0072 19.8832 20.9495 20.2038 20.8298 20.5033C20.7101 20.8027 20.5307 21.0747 20.3027 21.3027C20.0747 21.5307 19.8027 21.7101 19.5033 21.8298C19.2038 21.9495 18.8832 22.0072 18.5608 21.9993H4.43919C4.1168 22.0072 3.79617 21.9495 3.49674 21.8298C3.19731 21.7101 2.92532 21.5307 2.69729 21.3027C2.46926 21.0747 2.28994 20.8027 2.1702 20.5033C2.05046 20.2038 1.9928 19.8832 2.00072 19.5608V5.43919C1.9928 5.1168 2.05046 4.79617 2.1702 4.49674C2.28994 4.19731 2.46926 3.92532 2.69729 3.69729C2.92532 3.46926 3.19731 3.28994 3.49674 3.1702C3.79617 3.05046 4.1168 2.9928 4.43919 3.00072ZM15.8406 5.11127C15.614 5.11198 15.3968 5.2024 15.2366 5.36276C15.0764 5.52312 14.9862 5.74038 14.9858 5.96705V8.01096C14.9862 8.23763 15.0764 8.45489 15.2366 8.61525C15.3968 8.77561 15.614 8.86603 15.8406 8.86673H17.9876C18.2144 8.86626 18.4318 8.77595 18.5922 8.61556C18.7526 8.45518 18.8429 8.23778 18.8434 8.01096V5.96705C18.8429 5.74023 18.7526 5.52283 18.5922 5.36244C18.4318 5.20206 18.2144 5.11174 17.9876 5.11127H15.8406ZM18.8523 11.0351H17.1798C17.3416 11.5632 17.4236 12.1125 17.4233 12.6648C17.3985 14.2067 16.7625 15.6756 15.655 16.7486C14.5475 17.8216 13.0592 18.4109 11.5173 18.3869C9.97555 18.4109 8.48736 17.8216 7.38 16.7485C6.27264 15.6755 5.63677 14.2066 5.61221 12.6648C5.61178 12.1125 5.69385 11.5632 5.85571 11.0351H4.11216V19.0605C4.11263 19.2607 4.19237 19.4525 4.33392 19.5941C4.47548 19.7357 4.66733 19.8154 4.86752 19.8159H18.0969C18.2971 19.8154 18.489 19.7357 18.6305 19.5941C18.7721 19.4525 18.8518 19.2607 18.8523 19.0605V11.0351ZM11.5182 8.76187C10.5221 8.74643 9.56056 9.12715 8.84502 9.82037C8.12948 10.5136 7.71847 11.4625 7.70233 12.4587C7.71917 13.4543 8.13048 14.4026 8.84595 15.0953C9.56141 15.7879 10.5225 16.1683 11.5182 16.1528C12.5133 16.1673 13.4735 15.7865 14.1882 15.094C14.9029 14.4015 15.3137 13.4537 15.3305 12.4587C15.3144 11.4632 14.9039 10.5147 14.1891 9.82164C13.4744 9.12853 12.5138 8.74738 11.5182 8.76187Z" fill="#515151"/>
</svg>
