<svg width="196" height="35" viewBox="0 0 196 35" fill="none" xmlns="http://www.w3.org/2000/svg">
<path d="M6.2816 33.4929H10.6137C12.9964 22.528 13.3677 20.987 14.0484 16.8972H14.1103C14.853 20.9868 15.2553 23.0613 17.545 33.4929H22.0008L28.2513 12.2148H23.548C20.6704 23.9207 20.2989 25.7581 19.9277 27.7733H19.8658C19.3707 25.0172 19.154 23.8912 16.5548 12.2148H11.6348C9.28304 23.3872 8.94272 25.5506 8.54049 27.7733H8.47859C8.07636 25.3432 7.7978 23.8615 4.95096 12.2148H0L6.28145 33.4929H6.2816Z" fill="#4A4949"/>
<path d="M42.4994 26.3263C42.4994 21.1537 38.8705 18.7828 34.848 18.7828C30.8254 18.7828 27.1965 21.1535 27.1965 26.3263C27.1965 31.4989 30.8254 33.8698 34.848 33.8698C38.8705 33.8698 42.4994 31.4989 42.4994 26.3263ZM38.4486 26.3263C38.4486 28.1583 37.8861 30.6908 34.848 30.6908C31.8099 30.6908 31.2473 28.1583 31.2473 26.3263C31.2473 24.4943 31.8099 21.9618 34.848 21.9618C37.8861 21.9618 38.4486 24.4943 38.4486 26.3263ZM59.8485 26.3263C59.8485 21.1537 56.2196 18.7828 52.197 18.7828C48.1745 18.7828 44.5456 21.1535 44.5456 26.3263C44.5456 31.4989 48.1745 33.8698 52.197 33.8698C56.2196 33.8698 59.8485 31.4989 59.8485 26.3263ZM55.7977 26.3263C55.7977 28.1583 55.2351 30.6908 52.197 30.6908C49.1589 30.6908 48.5964 28.1583 48.5964 26.3263C48.5964 24.4943 49.1589 21.9618 52.197 21.9618C55.2351 21.9618 55.7977 24.4943 55.7977 26.3263ZM76.438 14.1489H72.4997V21.0188H72.4434C71.8245 20.1029 70.643 18.7828 68.1113 18.7828C64.82 18.7828 61.8945 21.2075 61.8945 26.1645C61.8945 30.0979 63.7511 33.8697 68.1956 33.8697C69.8272 33.8697 71.5713 33.3038 72.5277 31.6874H72.5839V33.4925H76.4377V14.1489H76.438ZM65.9454 26.4339C65.9454 24.171 66.7894 22.0425 69.2929 22.0425C71.9934 22.0425 72.6686 24.3595 72.6686 26.6495C72.6686 28.7779 71.684 30.7715 69.1805 30.7715C66.6487 30.7715 65.9456 28.1312 65.9456 26.4339H65.9454ZM88.9205 29.2896C88.6111 30.3133 87.4859 30.8522 86.3887 30.8522C83.21 30.8522 82.9849 28.4275 82.8725 27.3499H93.14V26.6764C93.14 20.1298 89.0611 18.7826 86.1075 18.7826C79.5532 18.7826 78.9343 24.3055 78.9343 26.0297C78.9343 31.9297 82.1692 33.8695 86.3887 33.8695C88.9486 33.8695 91.9303 32.738 92.9711 29.2895H88.9205V29.2896ZM82.9849 24.8982C83.21 23.0123 84.1945 21.8808 86.0511 21.8808C87.317 21.8808 88.8641 22.5813 89.0892 24.8982H82.9849ZM109.448 23.5781C109.448 20.426 107.17 18.7826 104.244 18.7826C101.403 18.7826 100.278 20.3991 99.7433 21.2612H99.6871V19.1598H95.9177V33.4924H99.856V25.2754C99.856 23.0932 101.206 21.9617 102.95 21.9617C105.454 21.9617 105.51 23.7398 105.51 24.7905V33.4924H109.448V23.5781H109.448Z" fill="#4A4949"/>
<path d="M117.244 27.9272C117.244 30.325 118.509 34.393 125.879 34.393C127.652 34.393 133.84 33.8812 133.84 28.062C133.84 24.5865 131.309 23.5089 128.552 22.8625L123.629 21.7039C122.785 21.5154 121.491 21.1921 121.491 19.6834C121.491 17.9323 123.404 17.3665 125.007 17.3665C128.692 17.3665 129.03 19.4141 129.142 20.2762H133.193C133.165 17.9053 131.506 14.0259 125.317 14.0259C118.762 14.0259 117.553 17.8245 117.553 19.9799C117.553 24.2366 120.703 24.9369 123.966 25.6645L126.132 26.1494C128.27 26.6344 129.789 27.0384 129.789 28.5472C129.789 30.5948 127.567 31.0527 125.57 31.0527C121.885 31.0527 121.322 29.0051 121.294 27.9276H117.243L117.244 27.9272ZM141.316 15.6691H137.378V19.5485H135.352V22.2426H137.378V30.9445C137.378 32.8034 137.996 34.0426 141.4 34.0426H141.906C142.525 34.0426 143.144 34.0157 143.763 33.9888V31.1331C143.482 31.16 143.201 31.1869 142.947 31.1869C141.344 31.1869 141.316 30.8637 141.316 30.0285V22.2426H143.763V19.5485H141.316V15.6691H141.316ZM146.4 33.8812H150.338V26.4185C150.338 24.829 150.901 22.997 153.967 22.997C154.333 22.997 154.755 22.997 155.092 23.0508V19.2253C154.839 19.1984 154.586 19.1714 154.333 19.1714C151.942 19.1714 151.041 20.5723 150.226 22.0271H150.17V19.5486H146.4V33.8812ZM166.337 29.6784C166.028 30.7021 164.903 31.241 163.805 31.241C160.627 31.241 160.402 28.8163 160.289 27.7387H170.557V27.0652C170.557 20.5186 166.478 19.1714 163.524 19.1714C156.97 19.1714 156.351 24.6943 156.351 26.4185C156.351 32.3186 159.586 34.2583 163.805 34.2583C166.365 34.2583 169.347 33.1268 170.388 29.6783H166.337V29.6784ZM160.402 25.287C160.627 23.4011 161.611 22.2696 163.468 22.2696C164.734 22.2696 166.281 22.9701 166.506 25.287H160.402ZM182.139 29.6784C181.83 30.7021 180.704 31.241 179.607 31.241C176.429 31.241 176.203 28.8163 176.091 27.7387H186.359V27.0652C186.359 20.5186 182.28 19.1714 179.326 19.1714C172.772 19.1714 172.153 24.6943 172.153 26.4185C172.153 32.3186 175.388 34.2583 179.607 34.2583C182.167 34.2583 185.149 33.1268 186.19 29.6783H182.139V29.6784ZM176.203 25.287C176.429 23.4011 177.413 22.2696 179.27 22.2696C180.536 22.2696 182.083 22.9701 182.308 25.287H176.203ZM193.553 15.6692H189.614V19.5486H187.589V22.2427H189.614V30.9446C189.614 32.8035 190.233 34.0428 193.637 34.0428H194.143C194.762 34.0428 195.381 34.0158 196 33.9889V31.1333C195.719 31.1602 195.437 31.1871 195.184 31.1871C193.581 31.1871 193.553 30.8639 193.553 30.0287V22.2427H196V19.5486H193.553V15.6692H193.553Z" fill="#4A4949"/>
<path d="M146.346 11.8331L165.372 0.727489L165.945 0.393066L166.506 0.754974L185.59 11.9091L184.412 13.8993L165.889 3.10701L147.435 13.8785L146.346 11.8331Z" fill="url(#paint0_linear)"/>
<defs>
<linearGradient id="paint0_linear" x1="162.099" y1="-2.0656" x2="151.292" y2="17.1287" gradientUnits="userSpaceOnUse">
<stop stop-color="#EB5746"/>
<stop offset="0.631373" stop-color="#EC6D36"/>
<stop offset="1" stop-color="#ED8426"/>
</linearGradient>
</defs>
</svg>
