<svg id="Layer_1" xmlns="http://www.w3.org/2000/svg" viewBox="0 0 637.2 153.8"><style>.st0{fill:none;} .st1{fill:none;stroke:url(#SVGID_1_);stroke-width:6;stroke-miterlimit:10;} .st2{fill:#4B4A4A;} .st3{fill:#575757;} .st4{display:none;fill:#575757;} .st5{display:none;} .st6{display:inline;fill:none;stroke:url(#SVGID_2_);stroke-width:6;stroke-miterlimit:10;} .st7{display:inline;} .st8{enable-background:new ;} .st9{fill:#595959;}</style><path class="st0" d="M446.5-10.6l40.2 40.2"/><linearGradient id="SVGID_1_" gradientUnits="userSpaceOnUse" x1="456.844" y1="-5287.139" x2="576.82" y2="-5287.139" gradientTransform="matrix(1 0 0 -1 0 -5267)"><stop offset="0" stop-color="#ED8525"/><stop offset="1" stop-color="#EB5547"/></linearGradient><path class="st1" d="M458.3 37.2l58.5-33.3c19.5 11.1 39 22.3 58.5 33.4"/><path class="st2" d="M4.8 33.5H19c8.2 34.8 9 39.3 10.1 46.6h.2c1.2-6.6 2.1-13.1 8.9-46.6h14.1c7.4 34.9 8.1 38.3 9.5 46.6h.2c1.1-6 2.1-11.5 10.4-46.6h13.5L68 97.2H55.1c-6.6-31.2-7.7-37.4-9.8-49.7h-.2c-2 12.2-3 16.8-9.8 49.7H22.9L4.8 33.5zM108.9 98.4c-12.7 0-24.1-7.8-24.1-24.8s11.4-24.8 24.1-24.8S133 56.6 133 73.6s-11.4 24.8-24.1 24.8zm0-39.2c-9.6 0-11.3 8.3-11.3 14.4S99.4 88 108.9 88s11.3-8.3 11.3-14.4-1.7-14.4-11.3-14.4zM163.1 98.4c-12.7 0-24.1-7.8-24.1-24.8s11.4-24.8 24.1-24.8 24.1 7.8 24.1 24.8-11.4 24.8-24.1 24.8zm0-39.2c-9.6 0-11.3 8.3-11.3 14.4S153.6 88 163.1 88s11.3-8.3 11.3-14.4-1.7-14.4-11.3-14.4zM239 97.1h-12.1v-5.9h-.2c-3 5.3-8.5 7.2-13.7 7.2-14 0-19.9-12.4-19.9-25.4 0-16.3 9.2-24.3 19.6-24.3 8 0 11.7 4.3 13.7 7.4h.2V33.5H239v63.6zm-22.9-8.9c7.9 0 11-6.6 11-13.6 0-7.5-2.1-15.2-10.6-15.2-7.9 0-10.6 7-10.6 14.5 0 5.6 2.2 14.3 10.2 14.3zM290.6 83.3c-3.3 11.3-12.7 15.1-20.7 15.1-13.3 0-23.5-6.4-23.5-25.8 0-5.7 2-23.9 22.6-23.9 9.3 0 22.2 4.4 22.2 26v2.2h-32.4c.4 3.5 1.1 11.5 11.1 11.5 3.5 0 7-1.8 8-5.1h12.7zm-12.2-14.5c-.7-7.6-5.6-9.9-9.6-9.9-5.9 0-9 3.7-9.7 9.9h19.3zM342 97.1h-12.4V68.5c0-3.5-.2-9.3-8.1-9.3-5.5 0-9.8 3.7-9.8 10.9v27h-12.4V49.9h11.9v6.9h.2c1.7-2.8 5.2-8.2 14.2-8.2 9.2 0 16.4 5.4 16.4 15.8v32.7zM363.9 77.6c0 7.9 4 20.9 26.8 20.9 5.6 0 24.8-1.6 24.8-20.6 0-11.2-7.9-14.7-16.5-16.8l-15.4-3.7c-2.6-.6-6.6-1.7-6.6-6.6 0-5.7 6-7.5 11-7.5 11.5 0 12.5 6.6 12.9 9.5h12.6c-.1-7.7-5.2-20.3-24.5-20.3-20.4 0-24.2 12.3-24.2 19.3 0 13.8 9.7 16.1 20 18.4l6.7 1.5c6.6 1.6 11.4 2.9 11.4 7.9 0 6.6-6.9 8.1-13.1 8.1-11.5 0-13.2-6.6-13.4-10.1h-12.5zm74.8-39.8h-12.2v12.6h-6.2v8.7h6.2v28.2c0 6.1 2 10.1 12.5 10.1h1.6c1.9 0 3.9-.1 5.7-.1v-9.2c-.9.1-1.7.1-2.5.1-5 0-5.1-1-5.1-3.7V59.2h7.6v-8.7h-7.6V37.8zm15.8 59.1h12.4V72.7c0-5.1 1.7-11.1 11.2-11.1 1.1 0 2.4 0 3.5.1V49.4c-.7-.1-1.5-.1-2.4-.1-7.5 0-10.2 4.6-12.7 9.2h-.1v-8h-11.7l-.2 46.4zm62.1-13.6c-1 3.4-4.4 5-7.9 5-9.9 0-10.6-7.9-11-11.3h32v-2.2c0-21.2-12.7-25.5-21.8-25.5-20.4 0-22.3 17.9-22.3 23.6 0 19.1 10.1 25.4 23.2 25.4 7.9 0 17.2-3.7 20.4-14.8h-12.6v-.2zM498.1 69c.7-6.1 3.7-9.7 9.5-9.7 4 0 8.7 2.2 9.5 9.7h-19zm67.7 14.3c-1 3.4-4.5 5-7.9 5-9.9 0-10.5-7.9-10.9-11.3h32v-2.2c0-21.2-12.7-25.5-21.8-25.5-20.4 0-22.3 17.9-22.3 23.6 0 19.1 10.1 25.4 23.2 25.4 8 0 17.2-3.7 20.5-14.8h-12.8v-.2zM547.3 69c.6-6.1 3.7-9.7 9.5-9.7 3.9 0 8.7 2.2 9.5 9.7h-19zm53.9-31.2H589v12.6h-6.4v8.7h6.4v28.2c0 6.1 1.9 10.1 12.5 10.1h1.5c2 0 3.9-.1 5.9-.1v-9.2c-.9.1-1.7.1-2.6.1-5 0-5-1-5-3.7V59.2h7.6v-8.7h-7.6l-.1-12.7z"/><path class="st4" d="M37 130.3H25.8v10.9h-3.3v-24.7h16.4v2.6H25.8v8.4H37v2.8zm22.9 8.3c-.5 1-1.3 1.8-2.1 2.3-.9.5-2 .8-3.1.8-2 0-3.5-.6-4.7-1.9-1.1-1.3-1.6-3.3-1.6-5.9V123h3.4v10.8c0 2 .3 3.3.8 4 .6.8 1.5 1.1 2.8 1.1 1.1 0 2.1-.3 2.9-.8s1.4-1.1 1.8-2.1v-13h3.4v18.2h-3.1l-.5-2.6zm23.4-12.7l-1.8-.1c-.8 0-1.6.1-2.1.6-.6.5-1.1 1-1.5 1.8v13.1h-3.4V123h3l.4 2.6c.5-.9 1.1-1.8 1.9-2.1.8-.5 1.6-.8 2.6-.8h.8c.1.1.5.1.5.1l-.4 3.1zm12.8-2.9l.1 2.8c.6-1 1.5-1.8 2.4-2.3s1.9-.8 3-.8c2 0 3.5.5 4.7 1.8 1.1 1.1 1.6 2.9 1.6 5.3v11.6h-3.4v-11.5c0-1.6-.3-2.8-.9-3.4-.6-.8-1.6-1-3-1-.9 0-1.8.1-2.5.6s-1.3 1.1-1.8 1.9v13.5H93v-18.2h3.1v-.3zm26.9 18.3h-3.3v-18.2h3.3v18.2zm0-23h-3.3v-3.4h3.3v3.4zm12.9.4l3.4-.1v4.4h3.4v2.4h-3.4v11.1c0 .8.1 1.5.5 1.8.4.4.8.5 1.4.5h.6c.3-.1.5-.1.6-.1l.5 2.4c-.3.1-.6.4-1.1.5s-1 .1-1.5.1c-1.4 0-2.4-.4-3.3-1.1-.8-.8-1.1-2.1-1.1-3.9v-11.1H133v-2.4m32.1 15.4c-.5 1-1.3 1.8-2.1 2.3-.9.5-2 .8-3.1.8-2 0-3.5-.6-4.7-1.9-1.1-1.3-1.8-3.3-1.8-5.9V123h3.4v10.8c0 2 .3 3.3.8 4 .6.8 1.5 1.1 2.8 1.1 1.1 0 2.1-.3 3-.8.8-.5 1.4-1.1 1.8-2.1v-13h3.4v18.2h-3l-.5-2.6zm23.4-12.7l-1.8-.1c-.8 0-1.6.1-2.1.6-.6.5-1.1 1-1.5 1.8v13.1h-3.3V123h2.9l.4 2.6c.5-.9 1.1-1.8 1.9-2.1.8-.5 1.6-.8 2.6-.8h.8c.3.1.5.1.5.1l-.4 3.1zm17.1 15.7c-2.5 0-4.5-.8-6-2.5-1.5-1.6-2.3-3.9-2.3-6.7v-.8c0-2.6.8-4.7 2.4-6.5 1.5-1.8 3.4-2.5 5.5-2.5 2.4 0 4.4.8 5.7 2.1 1.3 1.5 1.8 3.5 1.8 6v2.1h-11.8v.1c0 1.8.5 3.1 1.3 4.4.9 1.1 2.1 1.6 3.6 1.6 1.1 0 2.1-.1 3-.5.9-.3 1.6-.8 2.3-1.4l1.3 2.1c-.6.8-1.5 1.1-2.6 1.6-1.4.6-2.7.9-4.2.9zm-.5-16.4c-1.1 0-2.1.5-2.9 1.4-.8 1-1.3 2.1-1.5 3.5v.1h8.6v-.5c0-1.3-.4-2.4-1.1-3.3-.7-.7-1.7-1.2-3.1-1.2zm21.5 16.1h-3.4v-3.5h3.4v3.5zm16 0h-3.4v-3.5h3.4v3.5zm15.8 0h-3.3v-3.5h3.3v3.5zm30.7-8.5c0 2.6-.6 4.8-1.9 6.4-1.3 1.6-3 2.4-5.3 2.4-1.1 0-2.3-.1-3.1-.6s-1.6-1.1-2.1-2.1l-.5 2.4h-2.8v-26.4h3.4V125c.5-.8 1.3-1.4 2.1-1.8.8-.5 1.8-.6 3-.6 2.3 0 4 .9 5.3 2.8 1.3 1.8 1.9 4.2 1.9 7v.4zm-3.3-.4c0-2.1-.4-3.8-1.1-5-.8-1.4-1.9-2-3.5-2-1 0-1.9.1-2.5.8-.8.5-1.3 1.1-1.8 2v7.9c.5.9 1 1.6 1.8 2.1.6.5 1.5.8 2.6.8 1.5 0 2.8-.6 3.4-1.8.8-1.1 1.1-2.6 1.1-4.4v-.4zm13.2-.5c0-2.8.8-5 2.3-6.7 1.5-1.8 3.4-2.6 6-2.6 2.5 0 4.5.8 6 2.6s2.1 4 2.1 6.7v.4c0 2.8-.8 5-2.1 6.7-1.5 1.8-3.4 2.5-6 2.5-2.5 0-4.5-.8-6-2.5-1.5-1.8-2.3-4-2.3-6.7v-.4zm3.4.4c0 1.9.5 3.5 1.3 4.8.8 1.1 2 1.8 3.6 1.8s2.8-.6 3.6-1.8c.8-1.3 1.3-2.9 1.3-4.8v-.4c0-2-.5-3.5-1.3-4.8s-2.1-1.9-3.6-1.9c-1.6 0-2.8.6-3.6 1.9s-1.3 2.8-1.3 4.8v.4zm26.8-9.3l.1 2.8c.6-1 1.4-1.8 2.4-2.3.9-.5 1.9-.8 3-.8 2 0 3.5.5 4.7 1.8 1.1 1.1 1.6 2.9 1.6 5.3v11.6h-3.4v-11.5c0-1.6-.4-2.8-1-3.4-.6-.8-1.5-1-2.9-1-.9 0-1.8.1-2.5.6s-1.4 1.1-1.8 1.9v13.5H326v-18.2h3.1v-.3h.1zm22.5 9.4c0-2.9.6-5.3 1.9-7 1.3-1.8 3-2.8 5.3-2.8 1.1 0 2.1.1 2.9.5.8.5 1.5 1 2.1 1.8v-10.1h3.4v26.4h-2.8l-.4-2.3c-.6.8-1.4 1.5-2.3 1.9-.8.5-1.8.6-3 .6-2.3 0-4-.8-5.3-2.4-1.3-1.6-1.9-3.8-1.9-6.4l.1-.2zm3.4.4c0 1.9.4 3.4 1.1 4.4.8 1.1 2 1.8 3.5 1.8 1 0 1.8-.3 2.5-.8.6-.5 1.1-1.1 1.6-1.9v-8.6c-.5-.8-1-1.4-1.6-1.8-.8-.5-1.5-.6-2.4-.6-1.6 0-2.8.6-3.6 1.9-.8 1.4-1.1 3-1.1 5.2v.4zm31.3 8.8c-2.5 0-4.5-.8-6-2.5-1.5-1.6-2.3-3.9-2.3-6.7v-.8c0-2.6.8-4.7 2.4-6.5 1.5-1.8 3.4-2.5 5.5-2.5 2.4 0 4.3.8 5.5 2.1 1.3 1.5 1.9 3.5 1.9 6v2.1h-11.8v.1c0 1.8.5 3.1 1.3 4.4.9 1.1 2.1 1.6 3.6 1.6 1.1 0 2.1-.1 3-.5.8-.3 1.5-.8 2.1-1.4l1.4 2.1c-.8.8-1.5 1.1-2.6 1.6-1.2.6-2.5.9-4 .9zm-.4-16.4c-1.1 0-2.1.5-2.9 1.4-.8 1-1.3 2.1-1.5 3.5v.1h8.4v-.5c0-1.3-.3-2.4-1-3.3-.7-.7-1.7-1.2-3-1.2zm17 7.2c0-2.9.6-5.3 1.9-7 1.3-1.8 3-2.8 5.3-2.8 1 0 2 .1 2.8.5.8.5 1.5 1 2.1 1.8v-10.1h3.3v26.4h-2.8l-.4-2.3c-.6.8-1.4 1.5-2.1 1.9-.9.5-1.9.6-3 .6-2.1 0-4-.8-5.3-2.4-1.3-1.6-1.9-3.8-1.9-6.4l.1-.2zm3.4.4c0 1.9.4 3.4 1.1 4.4.8 1.1 1.9 1.8 3.5 1.8 1 0 1.8-.3 2.4-.8.8-.5 1.3-1.1 1.8-1.9v-8.6c-.5-.8-1-1.4-1.8-1.8-.6-.5-1.5-.6-2.4-.6-1.6 0-2.8.6-3.5 1.9-.8 1.4-1.1 3-1.1 5.2v.4zm31.2 1.7l.4 2.1h.1l.5-2.1 3.8-11.6h2.6l3.8 11.6.5 2.4h.1l.5-2.4 2.9-11.6h3.4l-5.3 18.2h-2.8l-3.5-11.2-.8-3.1h-.1l-.7 3.2-3.5 11.2h-2.8l-5.3-18.2h3.3l2.9 11.5zm31.9 6.8h-3.4v-18.2h3.4v18.2zm0-23h-3.4v-3.4h3.4v3.4zm16.1.3v4.4h3.4v2.4h-3.4v11.1c0 .8.1 1.5.5 1.8.4.4.8.5 1.5.5h.6c.1-.1.4-.1.5-.1l.5 2.4c-.1.1-.5.4-1.1.5-.5.1-.9.1-1.5.1-1.4 0-2.4-.4-3.1-1.1-.8-.8-1.3-2.1-1.3-3.9v-11.1h-2.9v-2.4h2.9v-4.4l3.4-.2zm17.5 6.9c.6-.9 1.4-1.6 2.4-2.1.9-.5 1.9-.8 3-.8 2 0 3.5.5 4.7 1.8 1.1 1.1 1.6 3 1.6 5.4v11.5h-3.4v-11.5c0-1.5-.4-2.6-1-3.4s-1.6-1.1-2.9-1.1c-.9 0-1.8.1-2.5.6-.8.5-1.4 1-1.8 1.8v13.6h-3.4v-26.4h3.4l-.1 10.6c.1 0 0 0 0 0zm29.4 15.8h-3.4v-26.4h3.4v26.4zm11-9.4c0-2.8.8-5 2.3-6.7 1.5-1.8 3.4-2.6 5.9-2.6 2.6 0 4.7.8 6 2.6 1.5 1.8 2.1 4 2.1 6.7v.4c0 2.8-.8 5-2.1 6.7s-3.4 2.5-6 2.5c-2.5 0-4.5-.8-6-2.5-1.5-1.8-2.3-4-2.3-6.7l.1-.4zm3.4.4c0 1.9.5 3.5 1.3 4.8.8 1.1 2 1.8 3.6 1.8 1.5 0 2.8-.6 3.6-1.8.8-1.3 1.3-2.9 1.3-4.8v-.4c0-2-.5-3.5-1.3-4.8s-2.1-1.9-3.8-1.9c-1.5 0-2.8.6-3.5 1.9s-1.3 2.8-1.3 4.8v.4h.1zm29.5 3.5l.3 1.3h.1l.3-1.3 4.3-12.8h3.4l-6.7 18.2h-2.5l-6.8-18.2h3.4l4.2 12.8zm25.5 5.8c-2.5 0-4.7-.8-6-2.5-1.5-1.6-2.3-3.9-2.3-6.7v-.8c0-2.6.8-4.7 2.3-6.5 1.6-1.8 3.4-2.5 5.5-2.5 2.5 0 4.4.8 5.7 2.1 1.3 1.5 1.9 3.5 1.9 6v2.1h-11.8l-.1.1c.1 1.8.5 3.1 1.4 4.4.9 1.1 2.1 1.6 3.6 1.6 1.1 0 2.1-.1 3-.5.8-.3 1.5-.8 2.1-1.4l1.3 2.1c-.6.8-1.5 1.1-2.5 1.6-1.4.6-2.6.9-4.1.9zm-.7-16.4c-1.1 0-2.1.5-2.8 1.4-.8 1-1.3 2.1-1.5 3.5v.1h8.4v-.5c0-1.3-.4-2.4-1-3.3-.6-.7-1.6-1.2-3.1-1.2z"/><g class="st5"><linearGradient id="SVGID_2_" gradientUnits="userSpaceOnUse" x1="457.257" y1="-3442.361" x2="571.335" y2="-3442.361" gradientTransform="matrix(1 0 0 -1 0 -3423)"><stop offset="0" stop-color="#ED8525"/><stop offset="1" stop-color="#EB5547"/></linearGradient><path class="st6" d="M458.7 35.6l57.8-31.7c17.8 10.6 35.5 21.2 53.3 31.8"/><g class="st7"><path class="st2" d="M4.8 31.5H19c8.2 34.8 9 39.3 10.1 46.6h.2c1.2-6.6 2.1-13.1 8.9-46.6h14.1c7.4 34.9 8.1 38.3 9.5 46.6h.2c1.1-6 2.1-11.5 10.4-46.6h13.5L68 95.2H55.1c-6.6-31.2-7.7-37.4-9.8-49.7h-.2c-2 12.2-3 16.8-9.8 49.7H22.9L4.8 31.5zM108.9 96.4c-12.7 0-24.1-7.8-24.1-24.8s11.4-24.8 24.1-24.8S133 54.6 133 71.6s-11.4 24.8-24.1 24.8zm0-39.2c-9.6 0-11.3 8.3-11.3 14.4S99.4 86 108.9 86s11.3-8.3 11.3-14.4-1.7-14.4-11.3-14.4zM163.1 96.4c-12.7 0-24.1-7.8-24.1-24.8s11.4-24.8 24.1-24.8 24.1 7.8 24.1 24.8-11.4 24.8-24.1 24.8zm0-39.2c-9.6 0-11.3 8.3-11.3 14.4S153.6 86 163.1 86s11.3-8.3 11.3-14.4-1.7-14.4-11.3-14.4zM239 95.1h-12.1v-5.9h-.2c-3 5.3-8.5 7.2-13.7 7.2-14 0-19.9-12.4-19.9-25.4 0-16.3 9.2-24.3 19.6-24.3 8 0 11.7 4.3 13.7 7.4h.2V31.5H239v63.6zm-22.9-8.9c7.9 0 11-6.6 11-13.6 0-7.5-2.1-15.2-10.6-15.2-7.9 0-10.6 7-10.6 14.5 0 5.6 2.2 14.3 10.2 14.3zM290.6 81.3c-3.3 11.3-12.7 15.1-20.7 15.1-13.3 0-23.5-6.4-23.5-25.8 0-5.7 2-23.9 22.6-23.9 9.3 0 22.2 4.4 22.2 26v2.2h-32.4c.4 3.5 1.1 11.5 11.1 11.5 3.5 0 7-1.8 8-5.1h12.7zm-12.2-14.5c-.7-7.6-5.6-9.9-9.6-9.9-5.9 0-9 3.7-9.7 9.9h19.3zM342 95.1h-12.4V66.5c0-3.5-.2-9.3-8.1-9.3-5.5 0-9.8 3.7-9.8 10.9v27h-12.4V47.9h11.9v6.9h.2c1.7-2.8 5.2-8.2 14.2-8.2 9.2 0 16.4 5.4 16.4 15.8v32.7z"/></g><g class="st7"><path class="st2" d="M370.3 74.9c.1 3.5 1.9 10.3 13.5 10.3 6.3 0 13.3-1.5 13.3-8.2 0-5-4.8-6.3-11.5-7.9l-6.8-1.6c-10.3-2.4-20.2-4.7-20.2-18.7 0-7.1 3.8-19.6 24.5-19.6 19.5 0 24.7 12.8 24.8 20.6h-12.8c-.4-2.8-1.4-9.6-13-9.6-5.1 0-11.1 1.9-11.1 7.6 0 5 4.1 6 6.7 6.7l15.5 3.8c8.7 2.1 16.7 5.7 16.7 17.1 0 19.2-19.5 20.8-25.1 20.8-23.2 0-27.2-13.4-27.2-21.3h12.7zM430.5 54.2h.2c2.3-3.7 5.8-8.1 14.1-8.1 10.4 0 19.6 8 19.6 24.3 0 12.9-5.9 25.4-19.9 25.4-8.7 0-11.8-4.7-13.3-7.3h-.2v24.4h-12.3V47.4h11.9l-.1 6.8zm11 31.4c8 0 10.2-8.7 10.2-14.3 0-7.4-2.7-14.5-10.6-14.5-8.5 0-10.6 7.6-10.6 15.2 0 7 3.1 13.6 11 13.6zM511.3 85.3c0 5.6 1.2 6.8 2.8 7.4v1.9h-13.4c-.7-2.2-.9-2.9-1.2-5.6-2.8 2.9-6.8 6.8-15.3 6.8-7.1 0-14.4-4-14.4-13.7 0-9.2 5.9-13.9 13.7-15.1l11.2-1.7c2-.3 4.3-1.1 4.3-3.7 0-5.2-5-5.5-8.2-5.5-6.2 0-7.3 3.8-7.6 6.6h-12c1.4-14.5 11.4-16.5 21.1-16.5 6.7 0 18.8 2 18.8 13.7v25.4h.2zm-12.1-13.7c-1.2 1-3.3 1.8-8.4 2.6-4.6.8-8.4 2-8.4 7.1 0 4.3 3.4 5.7 5.8 5.7 5.5 0 11.1-3.5 11.1-9.3l-.1-6.1c.1 0 0 0 0 0zM563 77.3c-.4 4.9-4.3 18.4-21.5 18.4-17.7 0-21.8-13.6-21.8-23.5 0-15.3 6.7-26.2 22.6-26.2 7.4 0 19.7 3.4 20.8 18.1h-12.6c-.5-3.1-2.5-8-8.2-7.6-7.8 0-9.8 7.8-9.8 13.7 0 5.1.2 15.3 9.6 15.3 6.3 0 8.4-6 8.4-8.2H563zM612.2 80.7c-3.3 11.3-12.7 15.1-20.7 15.1-13.3 0-23.5-6.4-23.5-25.8 0-5.7 2-23.9 22.6-23.9 9.3 0 22.2 4.4 22.2 26v2.2h-32.4c.4 3.5 1.1 11.5 11.1 11.5 3.5 0 7-1.8 8-5.1h12.7zM600 66.2c-.7-7.6-5.6-9.9-9.6-9.9-5.9 0-9 3.7-9.7 9.9H600z"/></g><g class="st7"><path class="st3" d="M34.6 133.8h10.1v12.3h-2l-.7-3c-1.6 2.2-4.4 3.6-7.6 3.6-3.9 0-5.9-1.4-7-2.6-3.5-3.3-3.6-7.3-3.6-9.7 0-5.6 3.4-11.9 10.9-11.9 4.3 0 9.1 2.4 9.7 7.6h-3c-1-4-4.4-4.8-6.9-4.8-4.1 0-7.5 3.3-7.5 9.3 0 4.7 1.5 9.5 7.6 9.5 1.2 0 3-.1 4.7-1.5 2-1.6 2.5-3.6 2.5-6.1h-7.2v-2.7zM58 146.1h-2.8v-16.7h2.7v2.8h.1c1.1-2 2.6-3.3 4.7-3.3.4 0 .5 0 .7.1v2.9h-1.1c-2.6 0-4.3 2-4.3 4.5v9.7zM85.4 140.9c-.1.8-.9 3.2-3 4.6-.8.5-1.9 1.2-4.5 1.2-4.7 0-7.5-3.6-7.5-8.4 0-5.2 2.5-9.3 8-9.3 4.8 0 7.2 3.8 7.2 9.8H73.4c0 3.5 1.6 5.5 4.9 5.5 2.7 0 4.2-2 4.3-3.3l2.8-.1c0 .1 0 0 0 0zm-2.7-4.5c-.2-2.6-1.2-5-4.7-5-2.6 0-4.6 2.4-4.6 5h9.3zM94.5 134.5c.1-4 2.8-5.6 6.9-5.6 1.3 0 6.2.4 6.2 4.7v9.6c0 .7.4 1 .9 1 .3 0 .6-.1.9-.1v2c-.5.1-.9.3-1.5.3-2.5 0-2.9-1.3-3-2.6-1.1 1.2-2.8 2.7-6 2.7-3.1 0-5.2-2-5.2-4.8 0-1.4.4-4.7 5.1-5.2l4.6-.6c.7-.1 1.5-.3 1.5-2 0-1.8-1.3-2.7-3.9-2.7-3.2 0-3.6 2-3.8 3.2l-2.7.1zm10.3 3.1c-.4.4-1.2.6-4.6 1.1-1.4.2-3.6.6-3.6 2.7 0 1.8.9 2.9 3 2.9 2.6 0 5.2-1.7 5.2-3.9v-2.8zM121.5 131.7v10.9c0 1.3 1.1 1.3 1.7 1.3h1v2.2c-1 .1-1.8.2-2.1.2-2.8 0-3.4-1.6-3.4-3.6v-11h-2.3v-2.3h2.3v-4.7h2.8v4.7h2.7v2.3h-2.7zM151 146.1h-3.1v-23h15.9v2.8H151v7h11.3v2.8H151v10.4zM183.3 146.1v-2.4l-.1-.1c-1.2 2-2.6 3-5.3 3-2.5 0-5.4-1.2-5.4-5.2v-12h2.8v11.1c0 2.8 1.4 3.7 3.2 3.7 3.6 0 4.6-3.1 4.6-5.6v-9.2h2.8v16.7h-2.6zM199.1 146.1h-2.8v-16.7h2.7v2.8h.1c1.1-2 2.6-3.3 4.7-3.3.4 0 .5 0 .7.1v2.9h-1.1c-2.6 0-4.3 2-4.3 4.5v9.7zM226.6 146.1h-2.8v-10.3c0-2.9-.8-4.4-3.6-4.4-1.6 0-4.4 1-4.4 5.6v9.1H213v-16.7h2.7v2.4h.1c.6-.9 2.2-2.8 5.1-2.8 2.6 0 5.9 1.1 5.9 5.8v11.3h-.2zM236.5 126.4v-3.2h2.8v3.2h-2.8zm2.8 19.7h-2.8v-16.7h2.8v16.7zM252.7 131.7v10.9c0 1.3 1.1 1.3 1.7 1.3h1v2.2c-1 .1-1.8.2-2.1.2-2.8 0-3.4-1.6-3.4-3.6v-11h-2.3v-2.3h2.3v-4.7h2.8v4.7h2.7v2.3h-2.7zM274.7 146.1v-2.4l-.1-.1c-1.2 2-2.6 3-5.3 3-2.5 0-5.4-1.2-5.4-5.2v-12h2.8v11.1c0 2.8 1.4 3.7 3.2 3.7 3.6 0 4.6-3.1 4.6-5.6v-9.2h2.8v16.7h-2.6zM290.4 146.1h-2.8v-16.7h2.7v2.8h.1c1.1-2 2.6-3.3 4.7-3.3.4 0 .5 0 .7.1v2.9h-1.1c-2.6 0-4.3 2-4.3 4.5v9.7zM317.7 140.9c-.1.8-.9 3.2-3 4.6-.8.5-1.9 1.2-4.5 1.2-4.7 0-7.5-3.6-7.5-8.4 0-5.2 2.5-9.3 8-9.3 4.8 0 7.2 3.8 7.2 9.8h-12.2c0 3.5 1.6 5.5 4.9 5.5 2.7 0 4.2-2 4.3-3.3l2.8-.1zm-2.6-4.5c-.2-2.6-1.2-5-4.7-5-2.6 0-4.6 2.4-4.6 5h9.3zM327.2 142.7h3.3v3.1c0 4.4-2.7 4.9-3.3 5v-1.5c1.3-.1 1.7-1.7 1.7-3.2h-1.7v-3.4zM355.9 123.2H366c4.3 0 6.5 2.7 6.5 5.8 0 1.5-.5 3.6-3.1 4.8 1.5.6 4.2 1.7 4.2 5.6 0 3.7-2.7 6.8-7.8 6.8h-9.9v-23zm3.1 9.7h5.6c3 0 4.8-.9 4.8-3.7 0-2.1-1.3-3.4-4.8-3.4H359v7.1zm0 10.6h6.6c3.2 0 4.9-1.6 4.9-4.2 0-3.2-2.8-3.9-5.4-3.9H359v8.1zM396.9 140.9c-.1.8-.9 3.2-3 4.6-.8.5-1.9 1.2-4.5 1.2-4.7 0-7.5-3.6-7.5-8.4 0-5.2 2.5-9.3 8-9.3 4.8 0 7.2 3.8 7.2 9.8h-12.2c0 3.5 1.6 5.5 4.9 5.5 2.7 0 4.2-2 4.3-3.3l2.8-.1zm-2.7-4.5c-.2-2.6-1.2-5-4.7-5-2.6 0-4.6 2.4-4.6 5h9.3zM409.6 131.7v10.9c0 1.3 1.1 1.3 1.7 1.3h1v2.2c-1 .1-1.8.2-2.1.2-2.8 0-3.4-1.6-3.4-3.6v-11h-2.3v-2.3h2.3v-4.7h2.8v4.7h2.7v2.3h-2.7zM424.1 131.7v10.9c0 1.3 1.1 1.3 1.7 1.3h1v2.2c-1 .1-1.8.2-2.1.2-2.8 0-3.4-1.6-3.4-3.6v-11H419v-2.3h2.3v-4.7h2.8v4.7h2.7v2.3h-2.7zM449.4 140.9c-.1.8-.9 3.2-3 4.6-.8.5-1.9 1.2-4.5 1.2-4.7 0-7.5-3.6-7.5-8.4 0-5.2 2.5-9.3 8-9.3 4.8 0 7.2 3.8 7.2 9.8h-12.2c0 3.5 1.6 5.5 4.9 5.5 2.7 0 4.2-2 4.3-3.3l2.8-.1zm-2.7-4.5c-.2-2.6-1.2-5-4.7-5-2.6 0-4.6 2.4-4.6 5h9.3zM461.9 146.1h-2.8v-16.7h2.7v2.8h.1c1.1-2 2.6-3.3 4.7-3.3.4 0 .5 0 .7.1v2.9h-1.1c-2.6 0-4.3 2-4.3 4.5v9.7zM493.3 146.1h-3.1v-23h10.3c4.3 0 6.8 2.8 6.8 6.5 0 3.2-1.8 6.8-6.8 6.8h-7.2v9.7zm0-12.3h6.2c2.8 0 4.7-1 4.7-4.1 0-2.9-2-3.8-4.5-3.8h-6.3v7.9h-.1zM519.8 146.1H517v-16.7h2.7v2.8h.1c1.1-2 2.6-3.3 4.7-3.3.4 0 .5 0 .7.1v2.9h-1.1c-2.6 0-4.3 2-4.3 4.5v9.7zM533.4 126.4v-3.2h2.8v3.2h-2.8zm2.8 19.7h-2.8v-16.7h2.8v16.7zM556.6 135c-.4-2.2-1.6-3.6-4-3.6-3.5 0-4.6 3.3-4.6 6.3 0 2.9.7 6.4 4.6 6.4 1.9 0 3.5-1.4 4-4h2.7c-.3 2.7-1.9 6.4-6.8 6.4-4.7 0-7.5-3.6-7.5-8.4 0-5.2 2.5-9.3 8-9.3 4.4 0 6 3.2 6.3 6.1l-2.7.1zM582 140.9c-.1.8-.9 3.2-3 4.6-.8.5-1.9 1.2-4.5 1.2-4.7 0-7.5-3.6-7.5-8.4 0-5.2 2.5-9.3 8-9.3 4.8 0 7.2 3.8 7.2 9.8H570c0 3.5 1.6 5.5 4.9 5.5 2.7 0 4.2-2 4.3-3.3l2.8-.1zm-2.7-4.5c-.2-2.6-1.2-5-4.7-5-2.6 0-4.6 2.4-4.6 5h9.3zM600.8 134.2c0-1.1-.4-2.8-4-2.8-.9 0-3.3.3-3.3 2.4 0 1.4.9 1.7 3 2.2l2.8.7c3.5.9 4.7 2.1 4.7 4.4 0 3.5-2.8 5.5-6.6 5.5-6.6 0-7.1-3.8-7.2-5.9h2.7c.1 1.3.5 3.4 4.4 3.4 2 0 3.8-.8 3.8-2.7 0-1.3-.9-1.8-3.3-2.4l-3.3-.8c-2.3-.6-3.9-1.8-3.9-4.1 0-3.7 3-5.3 6.3-5.3 6 0 6.4 4.4 6.4 5.2h-2.5v.2z"/></g></g><g class="st8"><path class="st9" d="M36.1 121.4v5.3h-1.8v-1.4c0-2.3-.7-2.8-2.5-2.8h-4.7c-1.1 0-1.3.5-1.3 1.4v6.5c0 .8 0 .9.9.9H30c1.3 0 1.3-.5 1.3-1.5v-1.2h1.5v6.5h-1.5v-1c0-1.3-.1-1.7-1.6-1.7h-3c-1 0-1 .2-1 1v6.1c0 1.5-.1 2.3 1.3 2.3h1.2v1.2H20v-1.2h1.2c1.4 0 1.3-.8 1.3-2.3v-14.8c0-1.5.1-2.3-1.3-2.3H20v-1h16.1zM54 141.1c-1.6 1.7-3.3 2.5-5.3 2.5-1.2 0-2.3-.5-2.9-1.2-1-1-.9-2.1-.9-3.4v-7.4c0-1.7.3-2.6-1.2-2.6h-1v-1H48v11c0 1.7.1 2.8 2.2 2.8 1.6 0 3.2-1.4 3.8-2.4v-7.9c0-1.7.3-2.6-1.2-2.6h-1v-1h5.3v11.4c0 1.7-.3 2.6 1.2 2.6h1v1H54v-1.8zM72.5 130.4c1.6-2 3.2-2.9 4.8-2.9.5 0 1.1 0 1.8.4v4.3h-1.6v-.5c0-1-.6-1.7-1.7-1.7-1 0-2.5 1-3.3 2.1v7.4c0 1.7-.2 2.6 1.2 2.6h1v1h-7.5v-1h1c1.5 0 1.2-1 1.2-2.6v-7.9c0-1.7.3-2.6-1.2-2.6h-1v-1h5.3v2.4zM92.1 130c1.7-1.7 3.5-2.5 5.6-2.5 2.4 0 3.8 1.4 3.8 4.1v7.9c0 1.7-.3 2.6 1.2 2.6h1v1h-5.2v-11.4c0-1.6-.5-2.4-2.1-2.4-1.7 0-2.7 1-4.2 2.4v7.9c0 1.7-.3 2.6 1.2 2.6h1v1h-7.6v-1h1c1.5 0 1.2-1 1.2-2.6v-7.9c0-1.7.2-2.6-1.2-2.6h-1v-1h5.3v1.9zM117 128.1v11.4c0 1.7-.3 2.6 1.2 2.6h.9v1h-7.5v-1h1c1.5 0 1.2-1 1.2-2.6v-7.9c0-1.7.3-2.6-1.2-2.6h-1v-1h5.4zm.1-4.7c0 .8-.7 1.7-1.8 1.7-.9 0-1.8-.7-1.8-1.8 0-.9.8-1.7 1.7-1.7 1 .1 1.9.8 1.9 1.8zM132.4 129.1v9.6c0 2-.1 3.5 1.9 3.5.6 0 1-.2 1.3-.3v1.1c-1.2.7-2 .6-2.9.6-1.1 0-2.2-.5-2.8-1.3-.7-.9-.7-1.9-.7-2.9v-10.3h-2.5v-1c.5 0 1.2 0 2.2-.7 1.8-1.1 2.2-2.3 2.3-3.9h1.2v4.6h3.1v1h-3.1zM154.7 141.1c-1.6 1.7-3.3 2.5-5.3 2.5-1.2 0-2.3-.5-2.9-1.2-1-1-.9-2.1-.9-3.4v-7.4c0-1.7.3-2.6-1.2-2.6h-1v-1h5.3v11c0 1.7.1 2.8 2.2 2.8 1.6 0 3.2-1.4 3.8-2.4v-7.9c0-1.7.3-2.6-1.2-2.6h-1v-1h5.3v11.4c0 1.7-.3 2.6 1.2 2.6h1v1h-5.3v-1.8zM173.2 130.4c1.6-2 3.2-2.9 4.8-2.9.5 0 1.1 0 1.8.4v4.3h-1.6v-.5c0-1-.6-1.7-1.7-1.7-1 0-2.5 1-3.3 2.1v7.4c0 1.7-.2 2.6 1.2 2.6h1v1h-7.5v-1h1c1.5 0 1.2-1 1.2-2.6v-7.9c0-1.7.3-2.6-1.2-2.6h-1v-1h5.3v2.4zM201 137.8v4.3c-1.5 1-3.3 1.5-5.5 1.5-4.7 0-7-2.5-7-8 0-5.6 2-8.1 6.7-8.1 4.9 0 5.8 2.8 6 7.9h-9.4v.6c0 2.1.2 3.7.7 4.7.6 1.2 1.9 1.9 3.2 1.9 2.2 0 3.4-1.3 3.4-3.5v-1.2l1.9-.1zm-2.6-3.6c-.1-3.4-.7-5.5-3.1-5.5-2.7 0-3.3 2-3.4 5.5h6.5zM213.2 140.2c1.1 0 1.7.8 1.7 1.7 0 .9-.6 1.6-1.7 1.6s-1.7-.8-1.7-1.6c0-1 .7-1.7 1.7-1.7zM226.5 140.2c1.1 0 1.7.8 1.7 1.7 0 .9-.6 1.6-1.7 1.6s-1.7-.8-1.7-1.6c.1-1 .7-1.7 1.7-1.7zM240 140.2c1.1 0 1.7.8 1.7 1.7 0 .9-.6 1.6-1.7 1.6s-1.7-.8-1.7-1.6c-.1-1 .6-1.7 1.7-1.7zM269.8 143h-2.4v-18.1c0-1.7.3-2.6-1.2-2.6h-.9v-1h5.2v8c1.5-1.3 2.7-1.8 4.7-1.8 3.8 0 5.4 2.7 5.4 8 0 5.5-1.8 8.2-5.6 8.2-1.9 0-3.2-.7-4.7-2l-.5 1.3zm.7-2.8c1 1.3 2.3 1.9 3.6 1.9 2.7 0 3-2.6 3-7.2 0-3.7-.4-6-3.1-6-1.3 0-2.6.7-3.6 2l.1 9.3zM297.3 127.6c4.9 0 6.7 2.6 6.7 7.8 0 5.5-1.7 8.3-6.8 8.3s-6.7-2.6-6.7-8.3c0-5.5 2-7.8 6.8-7.8zm-.2 14.9c3.2 0 3.6-2.3 3.6-7.4 0-4.3-.7-6.5-3.4-6.5-3.2 0-3.5 2.2-3.5 6.7-.1 5 .4 7.2 3.3 7.2zM318.3 130c1.7-1.7 3.5-2.5 5.6-2.5 2.4 0 3.8 1.4 3.8 4.1v7.9c0 1.7-.3 2.6 1.2 2.6h1v1h-5.2v-11.4c0-1.6-.5-2.4-2.1-2.4-1.7 0-2.7 1-4.2 2.4v7.9c0 1.7-.3 2.6 1.2 2.6h1v1h-7.5v-1h1c1.5 0 1.2-1 1.2-2.6v-7.9c0-1.7.2-2.6-1.2-2.6h-1v-1h5.3l-.1 1.9zM348.8 141.7c-1 1.2-2.8 1.9-4.6 1.9-4 0-5.5-2.7-5.5-8.3 0-5.2 1.6-7.9 5.4-7.9 2 0 3.4.6 4.7 1.9v-4.5c0-1.6.2-2.7-1.2-2.6h-1v-1h5.3v18.1c0 1.6-.3 2.7 1.2 2.6h.9v1h-5.2v-1.2zm0-10.7c-.9-1.3-2.3-2-3.5-2-2.8 0-3.2 2.2-3.2 6.7 0 4.1.5 6.5 3.1 6.5 1.4 0 2.8-.8 3.7-2.1l-.1-9.1zM375.1 137.8v4.3c-1.5 1-3.3 1.5-5.5 1.5-4.7 0-7-2.5-7-8 0-5.6 2-8.1 6.7-8.1 4.9 0 5.8 2.8 6 7.9h-9.4v.6c0 2.1.2 3.7.7 4.7.6 1.2 1.9 1.9 3.2 1.9 2.2 0 3.4-1.3 3.4-3.5v-1.2l1.9-.1zm-2.6-3.6c-.1-3.4-.7-5.5-3.1-5.5-2.7 0-3.3 2-3.4 5.5h6.5zM395.9 141.7c-1 1.2-2.8 1.9-4.6 1.9-4 0-5.5-2.7-5.5-8.3 0-5.2 1.6-7.9 5.4-7.9 2 0 3.4.6 4.7 1.9v-4.5c0-1.6.2-2.7-1.2-2.6h-1v-1h5.3v18.1c0 1.6-.3 2.7 1.2 2.6h.9v1h-5.2v-1.2zm0-10.7c-.9-1.3-2.3-2-3.5-2-2.8 0-3.2 2.2-3.2 6.7 0 4.1.5 6.5 3.1 6.5 1.4 0 2.8-.8 3.7-2.1l-.1-9.1zM437.9 128.1l3.6 12.2 2.9-9.9c.1-.3.2-.4.2-.7 0-.5-.1-.7-.9-.7h-1v-1.1h5.1v1.1h-.8c-1.1 0-1.2.6-1.5 1.6l-3.6 12.4H439l-3.2-11.1-3.7 11.1h-2.8l-3.8-12.5c-.4-1.3-.6-1.5-1.7-1.5h-.9v-1.1h7.9v1.1h-1.1c-.5 0-1.1 0-1.1.6 0 .2 0 .3.1.5l3 10.2 4.1-12.4h2l.1.2zM460.3 128.1v11.4c0 1.7-.3 2.6 1.2 2.6h.9v1h-7.5v-1h1c1.5 0 1.2-1 1.2-2.6v-7.9c0-1.7.3-2.6-1.2-2.6h-1v-1h5.4zm.1-4.7c0 .8-.7 1.7-1.8 1.7-.9 0-1.8-.7-1.8-1.8 0-.9.8-1.7 1.7-1.7 1.1.1 1.9.8 1.9 1.8zM475.7 129.1v9.6c0 2-.1 3.5 1.9 3.5.6 0 1-.2 1.3-.3v1.1c-1.2.7-2 .6-2.9.6-1.1 0-2.2-.5-2.8-1.3-.7-.9-.7-1.9-.7-2.9v-10.3H470v-1c.5 0 1.2 0 2.2-.7 1.8-1.1 2.2-2.3 2.3-3.9h1.2v4.6h3.1v1h-3.1zM498 143v-10.6c0-.9-.1-1.7-.3-2.2-.3-.5-1-1-1.7-1-1.5 0-3 .9-4.1 2.5v7.7c0 1.7-.3 2.6 1.2 2.6h1v1h-7.5v-1h1c1.5 0 1.2-.9 1.2-2.6v-14.5c0-1.7.2-2.6-1.2-2.6h-1v-1h5.3v8.6c1.6-1.7 3.3-2.5 5.2-2.5 1.3 0 2.4.4 3 1.2.9 1 1 2.1 1 3.5v7.2c0 1.7-.3 2.6 1.2 2.6h1v1l-5.3.1zM531.7 121.4v18.1c0 1.7-.3 2.6 1.2 2.6h1v1h-7.5v-1h1c1.5 0 1.2-1 1.2-2.6V125c0-1.7.3-2.6-1.2-2.6h-1v-1h5.3zM549.5 127.6c4.9 0 6.7 2.6 6.7 7.8 0 5.5-1.7 8.3-6.8 8.3s-6.7-2.6-6.7-8.3c0-5.5 2-7.8 6.8-7.8zm-.2 14.9c3.2 0 3.6-2.3 3.6-7.4 0-4.3-.7-6.5-3.4-6.5-3.2 0-3.5 2.2-3.5 6.7-.2 5 .3 7.2 3.3 7.2zM573.8 143h-2.4l-4.8-12.6c-.4-1.2-.6-1.4-1.9-1.4h-.7v-1h8v1h-1.1c-.6 0-1.1.1-1.1.5 0 .2.1.4.1.6l3.7 10.2 3.5-10c.1-.3.2-.4.2-.7 0-.7-.2-.7-1.1-.7h-.8v-1h5.1v1h-.5c-1.3 0-1.4.4-1.7 1.4l-4.5 12.7zM601 137.8v4.3c-1.5 1-3.3 1.5-5.5 1.5-4.7 0-7-2.5-7-8 0-5.6 2-8.1 6.7-8.1 4.9 0 5.8 2.8 6 7.9h-9.3v.6c0 2.1.2 3.7.7 4.7.6 1.2 1.9 1.9 3.2 1.9 2.2 0 3.4-1.3 3.4-3.5v-1.2l1.8-.1zm-2.6-3.6c-.1-3.4-.7-5.5-3.1-5.5-2.7 0-3.3 2-3.4 5.5h6.5z"/></g></svg>