<svg width="29" height="29" viewBox="0 0 29 29" fill="none" xmlns="http://www.w3.org/2000/svg">
<path d="M14.2975 3.1814C8.24168 3.1814 5.18799 7.66349 5.18799 11.4008C5.18799 13.6641 6.01826 15.6766 7.79794 16.4272C7.85965 16.4609 7.92826 16.4789 7.99808 16.4798C8.06789 16.4806 8.13689 16.4643 8.19936 16.4321C8.26183 16.3999 8.31595 16.3528 8.35725 16.2947C8.39855 16.2365 8.42583 16.1691 8.43682 16.0979C8.49499 15.8665 8.63477 15.2844 8.69669 15.0423C8.74546 14.9154 8.75355 14.7758 8.71978 14.6438C8.68601 14.5119 8.61216 14.3946 8.50906 14.3091C7.92806 13.5866 7.62722 12.6674 7.66472 11.7291C7.65491 10.8837 7.81186 10.045 8.12601 9.26413C8.44016 8.48327 8.90495 7.77657 9.49209 7.18704C10.0792 6.59751 10.7764 6.13748 11.5413 5.83495C12.3061 5.53242 13.1226 5.39372 13.941 5.42728C17.3634 5.42728 19.2444 7.58601 19.2444 10.4701C19.2444 14.2636 17.6176 17.4654 15.2037 17.4654C14.8952 17.482 14.5873 17.4235 14.3047 17.2946C14.0222 17.1657 13.7729 16.9699 13.5771 16.7233C13.3814 16.4766 13.2445 16.1858 13.1777 15.8745C13.1108 15.5631 13.1159 15.2399 13.1923 14.9309C13.5751 13.2642 14.3181 11.4647 14.3181 10.2619C14.3478 10.0122 14.3252 9.7588 14.2521 9.51881C14.1789 9.27883 14.0568 9.05781 13.8939 8.87062C13.7311 8.68343 13.5313 8.53442 13.308 8.43362C13.0847 8.33281 12.8431 8.28255 12.5994 8.28622C11.2363 8.28622 10.1414 9.73892 10.1414 11.6923C10.1327 12.4082 10.2712 13.1179 10.5477 13.7746C10.5477 13.7746 9.15263 19.8759 8.90871 20.9412C8.62237 22.5936 8.61127 24.2843 8.87588 25.9405C8.88112 25.9745 8.89599 26.0061 8.91861 26.0314C8.94124 26.0567 8.9706 26.0744 9.003 26.0825C9.0354 26.0906 9.0694 26.0886 9.1007 26.0768C9.132 26.0649 9.15921 26.0438 9.1789 26.016C10.1855 24.7318 10.9646 23.2741 11.4802 21.7102C11.6359 21.1291 12.3761 18.0939 12.3761 18.0939C12.7214 18.6137 13.1872 19.036 13.7311 19.3224C14.2749 19.6088 14.8796 19.7501 15.4899 19.7336C19.5868 19.7336 22.3675 15.8771 22.3675 10.7161C22.3675 6.81607 19.1646 3.1814 14.2975 3.1814Z" fill="#515151"/>
</svg>
