<svg width="18" height="27" viewBox="0 0 18 27" fill="none" xmlns="http://www.w3.org/2000/svg">
<path d="M1.4922 10.3768L9.15293 5.03296C10.838 3.34784 14.0128 0.0154151 16.38 0L16.6711 0.792665C18.0084 0.783562 16.2646 2.29871 17.209 3.24308C18.1534 4.18746 16.6683 5.44393 16.6594 6.78104L16.5773 19.2316C16.5684 20.5687 18.0366 21.8324 17.0799 22.7891C16.123 23.746 17.8596 25.2776 16.5222 25.2867L16.2311 26.4935C13.8639 26.5094 10.7065 23.2189 9.04359 21.556L1.4447 17.4788C-0.499997 15.5335 -0.478666 12.3476 1.4922 10.3768ZM6.42908 15.316C6.78888 15.3144 7.14185 15.1657 7.39773 14.9098C7.65361 14.6539 7.80152 14.3012 7.8034 13.9417C7.80654 13.5819 7.66303 13.2313 7.41051 12.9788C7.15775 12.726 6.80671 12.5825 6.44716 12.5854C6.08862 12.5873 5.73539 12.7357 5.47951 12.9916C5.22363 13.2475 5.07521 13.6007 5.07284 13.9597C5.07046 14.3188 5.21421 14.6701 5.46673 14.9226C5.71925 15.1751 6.07004 15.3184 6.42908 15.316Z" fill="#FF7A00"/>
<circle cx="6.5" cy="13.5" r="2.5" fill="white"/>
</svg>
