<svg width="25" height="15" viewBox="0 0 25 15" fill="none" xmlns="http://www.w3.org/2000/svg">
<path d="M8.89808 12.2758H7.44326C7.28892 12.2758 7.1409 12.2033 7.03177 12.0744C6.92264 11.9455 6.86133 11.7706 6.86133 11.5883V1.96326C6.86133 1.78092 6.92264 1.60605 7.03177 1.47712C7.1409 1.34819 7.28892 1.27576 7.44326 1.27576H18.4999V10.4896" stroke="#e57200" stroke-linecap="round" stroke-linejoin="round"/>
<path d="M24 6.08826H18.5V2.65076H22.1595C22.2969 2.65076 22.4312 2.69193 22.545 2.76896C22.6588 2.84599 22.7468 2.95535 22.7979 3.08293L24 6.08826Z" stroke="#e57200" stroke-linecap="round" stroke-linejoin="round"/>
<path d="M6.86133 8.15076H18.4999" stroke="#e57200" stroke-linecap="round" stroke-linejoin="round"/>
<path d="M19.5312 14.3383C20.6703 14.3383 21.5938 13.4148 21.5938 12.2758C21.5938 11.1367 20.6703 10.2133 19.5312 10.2133C18.3922 10.2133 17.4688 11.1367 17.4688 12.2758C17.4688 13.4148 18.3922 14.3383 19.5312 14.3383Z" stroke="#e57200" stroke-linecap="round" stroke-linejoin="round"/>
<path d="M17.4687 12.2758L13.2092 12.2758" stroke="#e57200" stroke-linecap="round" stroke-linejoin="round"/>
<path d="M18.5 10.4896V6.08826H24V11.5883C24 11.7706 23.9276 11.9455 23.7986 12.0744C23.6697 12.2033 23.4948 12.2758 23.3125 12.2758H21.5938" stroke="#e57200" stroke-linecap="round" stroke-linejoin="round"/>
<rect x="0.404785" y="1.00378" width="6.69305" height="0.690208" fill="url(#paint0_linear)"/>
<rect x="1.86548" y="2.26605" width="5.23219" height="0.690208" fill="url(#paint1_linear)"/>
<rect x="3.13428" y="3.52826" width="3.9633" height="0.690208" fill="url(#paint2_linear)"/>
<rect x="4.45996" y="4.79047" width="2.63801" height="0.690208" fill="url(#paint3_linear)"/>
<path d="M10.9534 14.3383C12.0925 14.3383 13.0159 13.4148 13.0159 12.2758C13.0159 11.1367 12.0925 10.2133 10.9534 10.2133C9.81428 10.2133 8.89087 11.1367 8.89087 12.2758C8.89087 13.4148 9.81428 14.3383 10.9534 14.3383Z" stroke="#e57200" stroke-linecap="round" stroke-linejoin="round"/>
<defs>
<linearGradient id="paint0_linear" x1="6.88482" y1="1.34889" x2="0.780035" y2="1.34889" gradientUnits="userSpaceOnUse">
<stop stop-color="#e57200"/>
<stop offset="0.838542" stop-color="#e57200" stop-opacity="0.28"/>
<stop offset="1" stop-color="#e57200" stop-opacity="0"/>
</linearGradient>
<linearGradient id="paint1_linear" x1="6.93115" y1="2.61116" x2="2.15882" y2="2.61116" gradientUnits="userSpaceOnUse">
<stop stop-color="#e57200"/>
<stop offset="0.838542" stop-color="#e57200" stop-opacity="0.28"/>
<stop offset="1" stop-color="#e57200" stop-opacity="0"/>
</linearGradient>
<linearGradient id="paint2_linear" x1="6.97144" y1="3.87336" x2="3.35648" y2="3.87336" gradientUnits="userSpaceOnUse">
<stop stop-color="#e57200"/>
<stop offset="0.838542" stop-color="#e57200" stop-opacity="0.28"/>
<stop offset="1" stop-color="#e57200" stop-opacity="0"/>
</linearGradient>
<linearGradient id="paint3_linear" x1="7.01401" y1="5.13557" x2="4.60786" y2="5.13557" gradientUnits="userSpaceOnUse">
<stop stop-color="#e57200"/>
<stop offset="0.838542" stop-color="#e57200" stop-opacity="0.28"/>
<stop offset="1" stop-color="#e57200" stop-opacity="0"/>
</linearGradient>
</defs>
</svg>
