<svg xmlns="http://www.w3.org/2000/svg" width="103" height="28" fill="none" xmlns:v="https://vecta.io/nano"><path d="M58.247 23.026L69 25 67.448 1 54 3.458l4.246 19.568z" fill="#23396c"/><path d="M97 22.248L2.23 24 0 3.52 94.288 3 97 22.248z" fill="url(#A)"/><path d="M0 2.9l13.536-.305L1.5 0 0 2.9zM56 24l-10 .07L51.872 26 56 24z" fill="#fd6525"/><path d="M101.98 24.748L68.222 25 67 1l36 .9-1.02 22.858z" fill="#141d40"/><path d="M6.593 17.933V8.69H9.83c1.12 0 1.972.216 2.552.647s.87 1.056.87 1.885c0 .453-.116.853-.35 1.2s-.556.595-.97.755c.474.118.846.357 1.117.717s.413.8.413 1.32c0 .89-.284 1.56-.85 2.018s-1.375.7-2.425.698H6.593zm1.904-4.024v2.495h1.63c.45 0 .798-.106 1.047-.317s.38-.512.38-.89c0-.846-.438-1.276-1.314-1.29H8.498zm0-1.346h1.41c.96-.017 1.44-.4 1.44-1.15 0-.42-.123-.72-.368-.9s-.624-.28-1.15-.28H8.498v2.33zm8.423 5.37h-1.904V8.69h1.904v9.242zm9.084-1.168c-.343.4-.827.73-1.454.96s-1.32.336-2.082.336c-.8 0-1.502-.174-2.108-.52s-1.066-.86-1.396-1.523-.493-1.445-.5-2.342v-.628c0-.923.154-1.72.463-2.393s.762-1.193 1.346-1.55 1.276-.54 2.063-.54c1.096 0 1.953.262 2.57.787s.984 1.28 1.098 2.28H24.15c-.085-.53-.273-.916-.565-1.162s-.685-.368-1.193-.368c-.648 0-1.14.243-1.48.73s-.5 1.2-.514 2.17v.6c0 .97.184 1.7.552 2.196s.908.743 1.62.743 1.225-.152 1.53-.457V14.48h-1.733v-1.403h3.637v3.688zm4.786 1.168V8.69h2.844c.813 0 1.538.184 2.177.552s1.145.884 1.504 1.56.54 1.44.54 2.298v.425c0 .86-.178 1.623-.533 2.29s-.85 1.187-1.492 1.555-1.37.554-2.177.558H30.79zm1.904-7.7v6.17h.92c.745 0 1.314-.243 1.708-.73s.594-1.183.603-2.088v-.49c0-.94-.195-1.65-.584-2.133s-.96-.73-1.707-.73h-.94zm12.11 3.694H41.15v2.476h4.29v1.53h-6.195V8.69h6.183v1.542H41.15v2.203h3.656v1.492zm6.97 2.1h-3.34l-.635 1.904h-2.025l3.44-9.242h1.765l3.46 9.242h-2.025l-.64-1.904zm-2.825-1.543h2.3l-1.162-3.46-1.15 3.46zm8.258 1.917h4.043v1.53h-5.948V8.69H57.2v7.712z" fill="#fff"/><defs><linearGradient id="A" x1="36" y1="3" x2="37.5" y2="24" gradientUnits="userSpaceOnUse"><stop stop-color="#fd810e"/><stop offset="1" stop-color="#f75900"/></linearGradient></defs></svg>