<svg width="25" height="15" viewBox="0 0 25 15" fill="none" xmlns="http://www.w3.org/2000/svg">
<path d="M9.23987 12.0047H7.78506C7.63072 12.0047 7.4827 11.9322 7.37357 11.8033C7.26444 11.6744 7.20312 11.4995 7.20312 11.3172V1.69214C7.20312 1.5098 7.26444 1.33493 7.37357 1.206C7.4827 1.07707 7.63072 1.00464 7.78506 1.00464H18.8417V10.2185" stroke="#4a4a4a" stroke-linecap="round" stroke-linejoin="round"/>
<path d="M24.3418 5.81714H18.8418V2.37964H22.5013C22.6387 2.37964 22.773 2.42081 22.8868 2.49784C23.0006 2.57487 23.0886 2.68423 23.1397 2.81181L24.3418 5.81714Z" stroke="#4a4a4a" stroke-linecap="round" stroke-linejoin="round"/>
<path d="M7.20312 7.87964H18.8417" stroke="#4a4a4a" stroke-linecap="round" stroke-linejoin="round"/>
<path d="M19.8729 14.0671C21.012 14.0671 21.9355 13.1436 21.9355 12.0046C21.9355 10.8655 21.012 9.94214 19.8729 9.94214C18.7339 9.94214 17.8105 10.8655 17.8105 12.0046C17.8105 13.1436 18.7339 14.0671 19.8729 14.0671Z" stroke="#4a4a4a" stroke-linecap="round" stroke-linejoin="round"/>
<path d="M17.8103 12.0046H13.5508" stroke="#4a4a4a" stroke-linecap="round" stroke-linejoin="round"/>
<path d="M18.8418 10.2185V5.81714H24.3418V11.3172C24.3418 11.4995 24.2694 11.6744 24.1404 11.8033C24.0115 11.9322 23.8366 12.0047 23.6543 12.0047H21.9356" stroke="#4a4a4a" stroke-linecap="round" stroke-linejoin="round"/>
<mask id="path-7-inside-1_21007_31292" fill="white">
<path d="M7.43914 0.732666H0.746094V1.42287H7.43914V0.732666Z"/>
</mask>
<path d="M7.43914 0.732666H0.746094V1.42287H7.43914V0.732666Z" fill="url(#paint0_linear_21007_31292)"/>
<path d="M0.746094 0.732666V-0.267334H-0.253906V0.732666H0.746094ZM7.43914 0.732666H8.43914V-0.267334H7.43914V0.732666ZM7.43914 1.42287V2.42287H8.43914V1.42287H7.43914ZM0.746094 1.42287H-0.253906V2.42287H0.746094V1.42287ZM0.746094 1.73267H7.43914V-0.267334H0.746094V1.73267ZM6.43914 0.732666V1.42287H8.43914V0.732666H6.43914ZM7.43914 0.422874H0.746094V2.42287H7.43914V0.422874ZM1.74609 1.42287V0.732666H-0.253906V1.42287H1.74609Z" fill="#4a4a4a" mask="url(#path-7-inside-1_21007_31292)"/>
<mask id="path-9-inside-2_21007_31292" fill="white">
<path d="M7.43922 1.99487H2.20703V2.68508H7.43922V1.99487Z"/>
</mask>
<path d="M7.43922 1.99487H2.20703V2.68508H7.43922V1.99487Z" fill="url(#paint1_linear_21007_31292)"/>
<path d="M2.20703 1.99487V0.994873H1.20703V1.99487H2.20703ZM7.43922 1.99487H8.43922V0.994873H7.43922V1.99487ZM7.43922 2.68508V3.68508H8.43922V2.68508H7.43922ZM2.20703 2.68508H1.20703V3.68508H2.20703V2.68508ZM2.20703 2.99487H7.43922V0.994873H2.20703V2.99487ZM6.43922 1.99487V2.68508H8.43922V1.99487H6.43922ZM7.43922 1.68508H2.20703V3.68508H7.43922V1.68508ZM3.20703 2.68508V1.99487H1.20703V2.68508H3.20703Z" fill="#4a4a4a" mask="url(#path-9-inside-2_21007_31292)"/>
<mask id="path-11-inside-3_21007_31292" fill="white">
<path d="M7.43889 3.25708H3.47559V3.94729H7.43889V3.25708Z"/>
</mask>
<path d="M7.43889 3.25708H3.47559V3.94729H7.43889V3.25708Z" fill="url(#paint2_linear_21007_31292)"/>
<path d="M3.47559 3.25708V2.25708H2.47559V3.25708H3.47559ZM7.43889 3.25708H8.43889V2.25708H7.43889V3.25708ZM7.43889 3.94729V4.94729H8.43889V3.94729H7.43889ZM3.47559 3.94729H2.47559V4.94729H3.47559V3.94729ZM3.47559 4.25708H7.43889V2.25708H3.47559V4.25708ZM6.43889 3.25708V3.94729H8.43889V3.25708H6.43889ZM7.43889 2.94729H3.47559V4.94729H7.43889V2.94729ZM4.47559 3.94729V3.25708H2.47559V3.94729H4.47559Z" fill="#4a4a4a" mask="url(#path-11-inside-3_21007_31292)"/>
<mask id="path-13-inside-4_21007_31292" fill="white">
<path d="M7.43879 4.51929H4.80078V5.2095H7.43879V4.51929Z"/>
</mask>
<path d="M7.43879 4.51929H4.80078V5.2095H7.43879V4.51929Z" fill="url(#paint3_linear_21007_31292)"/>
<path d="M4.80078 4.51929V3.51929H3.80078V4.51929H4.80078ZM7.43879 4.51929H8.43879V3.51929H7.43879V4.51929ZM7.43879 5.2095V6.2095H8.43879V5.2095H7.43879ZM4.80078 5.2095H3.80078V6.2095H4.80078V5.2095ZM4.80078 5.51929H7.43879V3.51929H4.80078V5.51929ZM6.43879 4.51929V5.2095H8.43879V4.51929H6.43879ZM7.43879 4.2095H4.80078V6.2095H7.43879V4.2095ZM5.80078 5.2095V4.51929H3.80078V5.2095H5.80078Z" fill="#4a4a4a" mask="url(#path-13-inside-4_21007_31292)"/>
<path d="M11.295 14.0671C12.4341 14.0671 13.3575 13.1436 13.3575 12.0046C13.3575 10.8655 12.4341 9.94214 11.295 9.94214C10.1558 9.94214 9.23242 10.8655 9.23242 12.0046C9.23242 13.1436 10.1558 14.0671 11.295 14.0671Z" stroke="#4a4a4a" stroke-linecap="round" stroke-linejoin="round"/>
<defs>
<linearGradient id="paint0_linear_21007_31292" x1="7.22613" y1="1.07778" x2="1.12134" y2="1.07778" gradientUnits="userSpaceOnUse">
<stop stop-color="#4a4a4a"/>
<stop offset="0.838542" stop-color="#4a4a4a" stop-opacity="0.28"/>
<stop offset="1" stop-color="#4a4a4a" stop-opacity="0"/>
</linearGradient>
<linearGradient id="paint1_linear_21007_31292" x1="7.2727" y1="2.33998" x2="2.50037" y2="2.33998" gradientUnits="userSpaceOnUse">
<stop stop-color="#4a4a4a"/>
<stop offset="0.838542" stop-color="#4a4a4a" stop-opacity="0.28"/>
<stop offset="1" stop-color="#4a4a4a" stop-opacity="0"/>
</linearGradient>
<linearGradient id="paint2_linear_21007_31292" x1="7.31275" y1="3.60218" x2="3.69779" y2="3.60218" gradientUnits="userSpaceOnUse">
<stop stop-color="#4a4a4a"/>
<stop offset="0.838542" stop-color="#4a4a4a" stop-opacity="0.28"/>
<stop offset="1" stop-color="#4a4a4a" stop-opacity="0"/>
</linearGradient>
<linearGradient id="paint3_linear_21007_31292" x1="7.35483" y1="4.86439" x2="4.94868" y2="4.86439" gradientUnits="userSpaceOnUse">
<stop stop-color="#4a4a4a"/>
<stop offset="0.838542" stop-color="#4a4a4a" stop-opacity="0.28"/>
<stop offset="1" stop-color="#4a4a4a" stop-opacity="0"/>
</linearGradient>
</defs>
</svg>
