<svg width="28" height="29" viewBox="0 0 28 29" fill="none" xmlns="http://www.w3.org/2000/svg">
<path d="M23.5486 13.8933C23.4344 13.374 23.1618 12.9029 22.7683 12.5453C22.3749 12.1876 21.8801 11.961 21.3523 11.8967C18.8233 11.6615 16.2832 11.5676 13.7438 11.6154C11.2036 11.5675 8.66278 11.6615 6.1331 11.8967C5.6053 11.961 5.1105 12.1876 4.71707 12.5453C4.32364 12.9029 4.051 13.374 3.93682 13.8933C3.63924 15.4786 3.51893 17.0922 3.57809 18.7042C3.51809 20.3135 3.637 21.9246 3.93263 23.5078C4.04681 24.027 4.31946 24.4981 4.71289 24.8557C5.10632 25.2134 5.60112 25.44 6.12892 25.5043C8.65824 25.7395 11.1987 25.8335 13.7385 25.7856C16.2783 25.8336 18.8188 25.7396 21.3481 25.5043C21.8759 25.4398 22.3706 25.2132 22.764 24.8555C23.1574 24.4979 23.4301 24.027 23.5444 23.5078C23.8409 21.9247 23.9609 20.3137 23.9021 18.7042C23.9627 17.0924 23.8441 15.4789 23.5486 13.8933ZM9.37419 15.0897H7.90059V22.9053H6.54098V15.0897H5.09352V13.8096H9.37419V15.0897ZM13.0849 22.9053H11.856V22.1659C11.6956 22.3978 11.4873 22.5924 11.2451 22.7368C11.003 22.8811 10.7327 22.9718 10.4525 23.0026C10.2831 23.0204 10.1127 22.9802 9.96909 22.8886C9.82549 22.7971 9.71716 22.6596 9.6618 22.4985C9.57761 22.1694 9.54237 21.8297 9.55721 21.4903V16.1282H10.785V21.118C10.7789 21.2774 10.7827 21.437 10.7965 21.5959C10.8258 21.7863 10.9189 21.8835 11.0842 21.8835C11.331 21.8835 11.5883 21.6942 11.8602 21.3083V16.1282H13.089V22.9053H13.0849ZM17.7504 20.8712C17.767 21.3299 17.7252 21.7889 17.6259 22.237C17.5768 22.4584 17.4519 22.6556 17.2728 22.7947C17.0936 22.9337 16.8716 23.0058 16.6449 22.9984C16.3901 22.9787 16.1431 22.9009 15.9231 22.7709C15.703 22.6409 15.5156 22.4622 15.3753 22.2485V22.9053H14.1485V13.8064H15.3763V16.7767C15.518 16.5658 15.7061 16.3902 15.9262 16.2633C16.1463 16.1364 16.3925 16.0616 16.646 16.0446C16.8731 16.0372 17.0956 16.1096 17.2748 16.2493C17.4541 16.389 17.5787 16.587 17.627 16.8091C17.728 17.2548 17.7698 17.712 17.7514 18.1687L17.7504 20.8712ZM22.3856 19.7406H19.9279V20.9423C19.9279 21.5698 20.137 21.8835 20.5554 21.8835C20.6932 21.8904 20.8282 21.8425 20.9309 21.7502C21.0336 21.6579 21.0956 21.5288 21.1034 21.3909C21.1276 21.1128 21.1366 20.8335 21.1306 20.5543H22.3856V20.7331C22.3856 21.1284 22.371 21.4014 22.3595 21.5238C22.3207 21.7864 22.2227 22.0367 22.0729 22.2559C21.9083 22.4944 21.6855 22.6869 21.4255 22.815C21.1656 22.9431 20.8772 23.0027 20.5878 22.988C20.3023 23.0017 20.0177 22.9457 19.7588 22.8247C19.4998 22.7037 19.2742 22.5214 19.1016 22.2935C18.8032 21.8181 18.665 21.2594 18.7074 20.6996V18.3381C18.6608 17.7789 18.7938 17.2195 19.087 16.7411C19.2573 16.5147 19.4802 16.3332 19.7364 16.2122C19.9926 16.0912 20.2744 16.0344 20.5575 16.0467C20.8374 16.0346 21.1159 16.0916 21.3686 16.2127C21.6212 16.3338 21.8401 16.5153 22.006 16.7411C22.2978 17.2201 22.4311 17.779 22.3867 18.3381V19.7416L22.3856 19.7406Z" fill="#515151"/>
<path d="M20.5459 17.1509C20.1353 17.1509 19.9299 17.4646 19.9299 18.0921V18.7197H21.1578V18.0921C21.1578 17.4646 20.9528 17.1509 20.5459 17.1509Z" fill="#515151"/>
<path d="M15.9891 17.1509C15.8722 17.1574 15.7577 17.1873 15.6525 17.2386C15.5472 17.29 15.4533 17.3618 15.3762 17.45V21.5821C15.4529 21.671 15.5467 21.7435 15.652 21.7955C15.7573 21.8474 15.8719 21.8776 15.9891 21.8844C16.3436 21.8844 16.5235 21.5821 16.5235 20.9693V18.0754C16.5214 17.4646 16.3426 17.1509 15.9891 17.1509Z" fill="#515151"/>
<path d="M16.6753 10.9939C16.9576 10.9635 17.2302 10.8732 17.4748 10.7289C17.7194 10.5846 17.9303 10.3897 18.0934 10.1573V10.904H19.3349V4.05054H18.0976V9.28502C17.8226 9.67407 17.5622 9.86546 17.3132 9.86546C17.147 9.86546 17.0497 9.76715 17.0225 9.57472C17.0041 9.4147 16.9992 9.25342 17.0079 9.09258V4.05054H15.7654V9.46804C15.7512 9.81116 15.7883 10.1545 15.8752 10.4867C15.9318 10.6491 16.0417 10.7876 16.1869 10.8797C16.3321 10.9717 16.5043 11.012 16.6753 10.9939Z" fill="#515151"/>
<path d="M8.03442 7.17773V10.8999H9.41076V7.17773L11.0611 1.70898H9.67431L8.73305 5.31821L7.75832 1.70898H6.30981C6.59951 2.56135 6.90177 3.41686 7.19251 4.27027C7.53769 5.21956 7.81896 6.19088 8.03442 7.17773Z" fill="#515151"/>
<path d="M12.9102 10.994C13.1907 11.0064 13.4698 10.9489 13.7225 10.8265C13.9752 10.7042 14.1935 10.5209 14.3577 10.2932C14.6528 9.81048 14.7876 9.24668 14.7426 8.68264V6.28346C14.7876 5.71875 14.6529 5.15425 14.3577 4.67076C14.1854 4.4519 13.9658 4.27499 13.7152 4.15335C13.4647 4.03171 13.1898 3.96851 12.9113 3.96851C12.6328 3.96851 12.3579 4.03171 12.1074 4.15335C11.8568 4.27499 11.6371 4.4519 11.4649 4.67076C11.1668 5.15357 11.0309 5.71898 11.0769 6.2845V8.68264C11.0311 9.24715 11.1671 9.81149 11.4649 10.2932C11.6288 10.5207 11.8468 10.7038 12.0991 10.8262C12.3514 10.9485 12.6301 11.0061 12.9102 10.994ZM12.3183 6.03454C12.3183 5.40076 12.5107 5.08491 12.9102 5.08491C13.3098 5.08491 13.5022 5.39867 13.5022 6.03454V8.91586C13.5022 9.54965 13.3108 9.86654 12.9102 9.86654C12.5097 9.86654 12.3183 9.55278 12.3183 8.91586V6.03454Z" fill="#515151"/>
</svg>
